<?xml version="1.0" standalone="no"?> <!DOCTYPE svg PUBLIC "-//W3C//DTD SVG 1.0//EN" "http://www.w3.org/TR/2001/REC-SVG-20010904/DTD/svg10.dtd" > <svg xmlns="http://www.w3.org/2000/svg" width="100%" height="100%">
<defs >
<font horiz-adv-x="427" ><font-face
    font-family="ExcellenceInMotion"
    units-per-em="1000"
    panose-1="2 0 5 6 3 0 0 2 0 4"
    ascent="647"
    descent="-222"
    alphabetic="0" />
<missing-glyph horiz-adv-x="444" d="M0 7V627H444V7H0ZM222 352L380 590H64L222 352ZM246 317L405 77V555L246 317ZM64 44H380L222 281L64 44ZM39 555V78L198 317L39 555Z" />
<glyph unicode=" " glyph-name="space" horiz-adv-x="270" />
<glyph unicode="!" glyph-name="exclam" horiz-adv-x="281" d="M172 151H109V600H172V151ZM90 15T90 36T104 71T140 86T176 72T191 36T176 1T140 -13T105 1Z" />
<glyph unicode="&quot;" glyph-name="quotedbl" horiz-adv-x="416" d="M55 379L157 647H228L127 379H55ZM231 379L333 647H404L303 379H231Z" />
<glyph unicode="#" glyph-name="numbersign" horiz-adv-x="774" d="M547 636H613L562 454H676V398H546L497 225H676V169H481L433 0H365L413 169H239L191 0H123L171 169H55V225H187L237 398H55V454H253L305 636H371L320 454H495L547 636ZM304 398L255 225H429L479
398H304Z" />
<glyph unicode="$" glyph-name="dollar" horiz-adv-x="551" d="M313 -114H251V-11Q198 -6 148 16T65 70L103 119Q136 86 183 66T279 45Q343 45 382 73T422 149Q422 212 341 245L195 304Q72 354 72 456Q72 516 122 560T251 611V690H313V611Q404 601 472 539L433
495Q375 555 282 555Q215 555 179 528T142 456Q142 421 162 399T224 360L369 302Q492 252 492 149Q492 85 442 41T313 -11V-114Z" />
<glyph unicode="%" glyph-name="percent" horiz-adv-x="813" d="M370 568T370 511T329 414T228 373T127 413T84 511T126 607T228 647Q287 647 328 608ZM725 185T725 128T684 31T583 -10T482 30T439 128T481 224T583 264Q642 264 683 225ZM109 0L621 636H697L188
0H109ZM306 511Q306 544 284 567T228 590Q194 590 171 567T147 511Q147 477 170 454T228 430Q261 430 283 453T306 511ZM661 128Q661 161 639 184T583 207Q549 207 526 184T502 128Q502 94 525 71T583 47Q616 47 638 70T661 128Z" />
<glyph unicode="&amp;" glyph-name="ampersand" horiz-adv-x="605" d="M534 180Q506 140 483 113L591 5V0H514L442 71Q348 -13 236 -13Q152 -13 98 29T43 140Q43 186 78 228T188 324Q184 328 173 339T157 354T143 368T130 383T119 397T108 413T100 428T93 444T90
461T88 480Q88 537 134 575T246 613T356 576T401 481Q401 440 373 404T279 319L442 155Q463 180 484 212L534 180ZM108 140Q108 96 143 71T236 45Q328 45 401 112L229 284Q165 238 137 206T108 140ZM336 481Q336 513 310 536T245 559Q203 559 178 537T153 481Q153
469 156 458T163 440T177 420T193 403T215 382T238 360Q293 401 314 426T336 481Z" />
<glyph unicode="&apos;" glyph-name="quotesingle" horiz-adv-x="240" d="M55 379L157 647H228L127 379H55Z" />
<glyph unicode="(" glyph-name="parenleft" horiz-adv-x="350" d="M258 -79H189Q74 102 73 308T180 679H249Q18 315 258 -79Z" />
<glyph unicode=")" glyph-name="parenright" horiz-adv-x="350" d="M147 -79H78Q318 315 87 679H156Q265 514 264 308T147 -79Z" />
<glyph unicode="*" glyph-name="asterisk" horiz-adv-x="384" d="M65 584L159 545L156 647H222L220 546L317 584L340 524L241 487L301 405L248 368L190 454L130 371L79 407L139 489L42 524L65 584Z" />
<glyph unicode="+" glyph-name="plus" horiz-adv-x="574" d="M319 0H253V204H58V260H253V457H319V260H514V204H319V0Z" />
<glyph unicode="," glyph-name="comma" horiz-adv-x="240" d="M30 -161L132 107H203L102 -161H30Z" />
<glyph unicode="-" glyph-name="hyphen" horiz-adv-x="533" d="M430 216H109V287H430V216Z" />
<glyph unicode="." glyph-name="period" horiz-adv-x="311" d="M105 15T105 36T119 71T155 86T191 72T206 36T191 1T155 -13T120 1Z" />
<glyph unicode="/" glyph-name="slash" horiz-adv-x="636" d="M53 -88L511 696H585L129 -88H53Z" />
<glyph unicode="0" glyph-name="zero" horiz-adv-x="621" d="M572 303Q572 162 499 75T307 -13Q190 -13 117 74T44 303Q44 439 117 526T307 613Q425 613 498 526T572 303ZM505 303Q505 417 452 486T306 555Q216 555 163 486T110 303Q110 183 163 114T306 45Q398
45 451 114T505 303Z" />
<glyph unicode="1" glyph-name="one" horiz-adv-x="432" d="M339 0H273V525L80 355L37 403L261 600H339V0Z" />
<glyph unicode="2" glyph-name="two" horiz-adv-x="503" d="M451 0H53V57L257 259Q313 316 344 360T375 442Q375 496 342 525T246 555Q160 555 83 475L44 519Q84 560 138 586T247 613Q339 613 390 567T442 443Q442 415 431 386T397 327T358 278T311 228L141 57H451V0Z" />
<glyph unicode="3" glyph-name="three" horiz-adv-x="506" d="M168 287V342H240Q303 342 340 374T377 454Q377 499 341 527T240 555Q157 555 83 493L50 541Q86 572 138 592T240 613Q331 613 386 567T442 455Q442 370 354 318Q395 300 426 263T457 166Q457 92 396
40T240 -13Q190 -13 137 5T47 57L80 105Q144 45 240 45Q306 45 348 80T391 168Q391 221 349 254T240 287H168Z" />
<glyph unicode="4" glyph-name="four" horiz-adv-x="606" d="M69 122L39 182L378 600H461V180H557V122H461V0H396V122H69ZM118 180H396V529L118 180Z" />
<glyph unicode="5" glyph-name="five" horiz-adv-x="529" d="M411 189Q411 251 363 288T244 325Q164 325 107 302L72 339L112 600H426V543H169L142 370Q184 383 244 383Q348 383 413 330T478 190Q478 102 412 45T242 -13Q127 -13 48 56L80 105Q149 45 242 45Q319
45 365 84T411 189Z" />
<glyph unicode="6" glyph-name="six" horiz-adv-x="529" d="M490 195Q490 105 427 46T266 -13Q222 -13 185 0T114 43T61 131T41 270Q41 446 109 529T299 613Q387 613 454 569L422 516Q369 554 299 554Q214 554 163 496T108 326Q134 360 177 380T268 401Q364 401
427 344T490 195ZM268 341Q204 341 160 301T115 195Q115 127 159 86T266 44Q334 44 378 86T422 194Q422 262 379 301T268 341Z" />
<glyph unicode="7" glyph-name="seven" horiz-adv-x="500" d="M181 0H106L377 539H45V600H450V545L181 0Z" />
<glyph unicode="8" glyph-name="eight" horiz-adv-x="568" d="M486 458Q486 411 458 377T394 327Q441 312 476 272T512 168Q512 84 448 36T283 -13Q189 -13 122 36T54 168Q54 230 91 271T172 327Q138 339 109 375T80 458Q80 527 137 570T283 613Q375 613 430 570T486
458ZM283 297Q214 297 169 261T124 168Q124 113 170 79T283 44Q353 44 396 77T439 168Q439 224 397 260T283 297ZM152 458Q152 413 188 384T283 354T380 384T418 458Q418 500 383 528T283 556Q221 556 187 528T152 458Z" />
<glyph unicode="9" glyph-name="nine" horiz-adv-x="528" d="M38 405Q38 495 101 554T262 613Q306 613 343 600T414 557T467 469T487 330Q487 154 419 71T229 -13Q141 -13 74 31L106 84Q159 46 229 46Q314 46 365 104T420 274Q394 240 351 220T260 199Q164 199
101 256T38 405ZM260 259Q324 259 368 299T413 405Q413 473 369 514T262 556Q194 556 150 514T106 406Q106 338 149 299T260 259Z" />
<glyph unicode=":" glyph-name="colon" horiz-adv-x="311" d="M105 15T105 36T119 71T155 86T191 72T206 36T191 1T155 -13T120 1ZM105 363T105 384T119 419T155 434T191 420T206 384T191 349T155 335T120 349Z" />
<glyph unicode=";" glyph-name="semicolon" horiz-adv-x="274" d="M117 363T117 384T131 419T167 434T203 420T218 384T203 349T167 335T132 349ZM30 -161L132 107H203L102 -161H30Z" />
<glyph unicode="&lt;" glyph-name="less" horiz-adv-x="567" d="M399 589H501L140 296L501 0H399L75 268V328L399 589Z" />
<glyph unicode="=" glyph-name="equal" horiz-adv-x="617" d="M97 313V374H517V313H97ZM97 68V129H517V68H97Z" />
<glyph unicode="&gt;" glyph-name="greater" horiz-adv-x="586" d="M76 589H178L502 328V268L178 0H76L437 296L76 589Z" />
<glyph unicode="?" glyph-name="question" horiz-adv-x="492" d="M279 151H213V194Q213 234 224 259T270 319Q275 324 290 339T310 361T328 380T345 401T356 420T365 441T368 461Q368 504 337 529T242 555Q203 555 163 536T94 486L56 529Q88 562 138 587T242 613Q329
613 382 570T436 461Q436 444 431 427T420 398T399 367T378 341T351 312T325 286Q299 259 289 240T279 195V151ZM195 15T195 36T209 71T245 86T281 72T296 36T281 1T245 -13T210 1Z" />
<glyph unicode="@" glyph-name="at" horiz-adv-x="990" d="M685 272V145Q685 112 705 96T750 79Q792 79 819 122T847 257Q847 390 748 481T493 573Q342 573 240 471T137 213Q137 108 192 28T335 -92T530 -133Q669 -133 785 -59L810 -111Q757 -146 682 -168T530
-191Q408 -191 305 -144T137 -3T72 213Q72 393 193 512T494 632Q674 632 793 523T913 257Q913 138 864 79T747 20Q676 20 645 68Q619 41 575 23T478 5Q399 5 349 44T299 139Q299 198 355 236T507 275Q559 275 622 265V274Q622 328 587 360T484 392Q410 392 339
351V413Q404 448 484 448Q586 448 635 398T685 272ZM622 122V211Q572 221 507 221Q439 221 403 199T367 139Q367 103 395 82T478 61Q577 61 622 122Z" />
<glyph unicode="A" glyph-name="A" horiz-adv-x="742" d="M655 0L554 189H187L89 0H13L329 600H409L731 0H655ZM369 537L216 245H524L369 537Z" />
<glyph unicode="B" glyph-name="B" horiz-adv-x="583" d="M325 0H70V600H330Q414 600 467 557T520 444Q520 402 496 369T434 317Q538 271 538 168Q538 93 479 47T325 0ZM338 543H136V341H338Q390 341 421 372T453 444Q453 486 422 514T338 543ZM338 286H136V57H326Q389
57 430 89T472 172Q472 221 436 253T338 286Z" />
<glyph unicode="C" glyph-name="C" horiz-adv-x="646" d="M571 143L613 102Q510 -13 360 -13Q224 -13 126 76T28 307Q28 437 122 525T357 613Q490 613 599 511L557 470Q472 555 357 555Q243 555 169 484T95 307Q95 189 171 117T360 45Q491 45 571 143Z" />
<glyph unicode="D" glyph-name="D" horiz-adv-x="656" d="M275 0H70V600H275Q439 600 528 527T617 309Q617 167 526 84T275 0ZM136 57H275Q407 57 479 124T551 309Q551 422 480 482T275 543H136V57Z" />
<glyph unicode="E" glyph-name="E" horiz-adv-x="526" d="M475 0H70V600H476V543H136V334H461V278H136V57H475V0Z" />
<glyph unicode="F" glyph-name="F" horiz-adv-x="504" d="M445 260H136V0H70V600H463V543H136V317H445V260Z" />
<glyph unicode="G" glyph-name="G" horiz-adv-x="679" d="M361 45Q424 45 477 62T558 107V239H386V292H620V75Q524 -13 361 -13Q221 -13 122 76T23 307Q23 434 116 523T348 613Q495 613 597 523L552 478Q473 555 348 555Q236 555 163 483T90 307Q90 186 168 116T361 45Z" />
<glyph unicode="H" glyph-name="H" horiz-adv-x="676" d="M601 0H535V276H136V0H70V600H136V333H535V600H601V0Z" />
<glyph unicode="I" glyph-name="I" horiz-adv-x="296" d="M181 0H115V600H181V0Z" />
<glyph unicode="J" glyph-name="J" horiz-adv-x="403" d="M314 600V165Q314 79 270 33T145 -13Q84 -13 37 18L58 68Q97 44 145 44Q250 44 250 169V600H314Z" />
<glyph unicode="K" glyph-name="K" horiz-adv-x="568" d="M136 600V329L429 600H519L215 314L557 0H461L136 298V0H70V600H136Z" />
<glyph unicode="L" glyph-name="L" horiz-adv-x="489" d="M459 0H70V600H136V57H459V0Z" />
<glyph unicode="M" glyph-name="M" horiz-adv-x="789" d="M714 0H648V503L391 137H385L136 503V0H70V600H145L388 248L639 600H714V0Z" />
<glyph unicode="N" glyph-name="N" horiz-adv-x="699" d="M624 0H560L134 504V0H70V600H133L560 99V600H624V0Z" />
<glyph unicode="O" glyph-name="O" horiz-adv-x="702" d="M28 302Q28 431 122 522T350 613T578 522T673 302Q673 172 578 80T350 -13T123 79T28 302ZM95 408T95 302T169 121T350 45T531 120T605 302T532 481T350 555T169 482Z" />
<glyph unicode="P" glyph-name="P" horiz-adv-x="530" d="M261 213H136V0H69V600H261Q370 600 434 548T499 411Q499 323 435 268T261 213ZM261 543H136V269H261Q339 269 386 306T434 410Q434 471 387 507T261 543Z" />
<glyph unicode="Q" glyph-name="Q" horiz-adv-x="700" d="M28 302Q28 431 122 522T350 613T578 522T673 302Q673 165 570 72L654 -14L607 -57L519 34Q441 -13 350 -13Q217 -13 123 79T28 302ZM95 408T95 302T169 121T350 45T531 120T605 302T532 481T350 555T169 482Z" />
<glyph unicode="R" glyph-name="R" horiz-adv-x="577" d="M482 0L284 243H136V0H70V600H286Q387 600 447 550T507 421Q507 363 467 316T357 251L566 0H482ZM286 543H136V300H286Q355 300 396 335T438 421Q438 473 397 508T286 543Z" />
<glyph unicode="S" glyph-name="S" horiz-adv-x="503" d="M314 245L168 304Q45 354 45 456Q45 522 104 567T253 613Q365 613 445 539L406 495Q348 555 255 555Q188 555 152 528T115 456Q115 421 135 399T197 360L342 302Q465 252 465 149Q465 78 405 33T253 -13Q194
-13 135 10T38 70L76 119Q109 86 156 66T252 45Q316 45 355 73T395 149Q395 212 314 245Z" />
<glyph unicode="T" glyph-name="T" horiz-adv-x="496" d="M283 0H217V543H17V600H481V543H283V0Z" />
<glyph unicode="U" glyph-name="U" horiz-adv-x="677" d="M539 260V600H605V260Q605 131 533 59T338 -13Q217 -13 144 59T70 260V600H136V260Q136 154 191 100T338 45Q431 45 485 99T539 260Z" />
<glyph unicode="V" glyph-name="V" horiz-adv-x="648" d="M84 600L323 72L562 600H635L357 0H287L15 600H84Z" />
<glyph unicode="W" glyph-name="W" horiz-adv-x="936" d="M739 0H659L470 530L281 0H200L15 600H81L244 75L432 600H507L696 75L858 600H923L739 0Z" />
<glyph unicode="X" glyph-name="X" horiz-adv-x="613" d="M600 0H523L307 271L91 0H15L270 318L51 600H123L307 366L491 600H564L343 318L600 0Z" />
<glyph unicode="Y" glyph-name="Y" horiz-adv-x="581" d="M323 0H258V237L15 600H87L291 296L495 600H568L323 237V0Z" />
<glyph unicode="Z" glyph-name="Z" horiz-adv-x="563" d="M514 0H50V45L434 543H61V600H518V555L138 57H514V0Z" />
<glyph unicode="[" glyph-name="bracketleft" horiz-adv-x="417" d="M114 -79V679H311V625H178V-26H311V-79H114Z" />
<glyph unicode="\" glyph-name="backslash" horiz-adv-x="651" d="M140 696L598 -88H522L66 696H140Z" />
<glyph unicode="]" glyph-name="bracketright" horiz-adv-x="417" d="M300 679V-79H103V-25H236V626H103V679H300Z" />
<glyph unicode="^" glyph-name="asciicircum" horiz-adv-x="537" d="M440 334H367L269 548L176 334H102L239 640H300L440 334Z" />
<glyph unicode="_" glyph-name="underscore" horiz-adv-x="525" d="M485 -103H36V-39H485V-103Z" />
<glyph unicode="`" glyph-name="grave" horiz-adv-x="750" d="M274 647H353L480 485H405L274 642V647Z" />
<glyph unicode="a" glyph-name="a" horiz-adv-x="487" d="M419 0H361V45Q301 -9 212 -9Q133 -9 83 30T33 125Q33 184 89 222T241 261Q293 261 356 251V260Q356 314 321 346T218 378Q144 378 73 337V399Q138 434 218 434Q320 434 369 384T419 258V0ZM356 108V197Q306
207 241 207Q175 207 138 184T101 125T130 68T212 47Q311 47 356 108Z" />
<glyph unicode="b" glyph-name="b" horiz-adv-x="546" d="M271 434Q370 434 439 373T508 216Q508 116 440 54T271 -9Q227 -9 186 8T123 46V0H62V647H125V394Q192 434 271 434ZM271 48Q346 48 394 93T443 216Q443 287 394 332T271 377Q228 377 188 363T125 328V117Q145
88 185 68T271 48Z" />
<glyph unicode="c" glyph-name="c" horiz-adv-x="474" d="M407 116L453 76Q385 -9 268 -9Q172 -9 103 54T33 217Q33 308 103 371T268 434Q371 434 444 361L404 320Q347 377 268 377Q196 377 148 331T99 217Q99 141 147 95T268 48Q358 48 407 116Z" />
<glyph unicode="d" glyph-name="d" horiz-adv-x="543" d="M270 434Q349 434 416 394V647H479V0H418V46Q396 25 355 8T270 -9Q170 -9 102 53T33 216Q33 312 102 373T270 434ZM270 48Q315 48 355 68T416 117V328Q393 349 353 363T270 377Q196 377 147 332T98 216Q98
138 146 93T270 48Z" />
<glyph unicode="e" glyph-name="e" horiz-adv-x="499" d="M477 195H100Q107 127 155 88T273 48Q314 48 353 66T416 113L458 69Q383 -9 274 -9Q168 -9 101 57T33 218Q33 305 99 369T260 434Q355 434 416 369T477 195ZM260 378Q200 378 156 341T101 248H407Q401
306 363 342T260 378Z" />
<glyph unicode="f" glyph-name="f" horiz-adv-x="360" d="M24 371V425H108V466Q108 546 159 596T295 647Q345 647 377 630V574Q340 591 298 591Q240 591 206 556T172 466V425H352V371H172V0H108V371H24Z" />
<glyph unicode="g" glyph-name="g" horiz-adv-x="535" d="M470 382V6Q470 -88 412 -142T248 -196Q203 -196 152 -182T68 -143L99 -92Q164 -139 249 -139Q329 -139 368 -100T408 7V41Q353 3 271 3Q171 3 102 64T33 222Q33 312 103 373T273 434Q379 434 470 382ZM273
59Q352 59 408 109V346Q350 378 273 378Q200 378 149 334T98 222Q98 148 148 104T273 59Z" />
<glyph unicode="h" glyph-name="h" horiz-adv-x="535" d="M477 0H414V260Q414 313 384 345T298 377Q252 377 206 353T132 297V0H69V647H132V370Q213 434 303 434Q381 434 429 388T477 261V0Z" />
<glyph unicode="i" glyph-name="i" horiz-adv-x="206" d="M135 0H71V425H135V0ZM53 558T53 579T67 614T103 629T139 615T154 579T139 544T103 530T68 544Z" />
<glyph unicode="j" glyph-name="j" horiz-adv-x="269" d="M194 425V-14Q194 -98 152 -142T31 -186Q-27 -186 -76 -152L-49 -102Q-9 -127 31 -127Q131 -127 131 -14V425H194ZM114 558T114 579T128 614T164 629T200 615T215 579T200 544T164 530T129 544Z" />
<glyph unicode="k" glyph-name="k" horiz-adv-x="457" d="M132 647V254L335 425H423L201 236L446 0H358L132 217V0H69V647H132Z" />
<glyph unicode="l" glyph-name="l" horiz-adv-x="225" d="M143 0H79V647H143V0Z" />
<glyph unicode="m" glyph-name="m" horiz-adv-x="816" d="M758 0H695V266Q695 318 668 347T594 377Q555 377 512 353T445 295V0H382V277Q382 321 356 349T286 377Q248 377 204 353T132 295V0H69V425H131V367Q207 434 294 434Q341 434 377 413T428 359Q507 434
602 434Q673 434 715 390T758 269V0Z" />
<glyph unicode="n" glyph-name="n" horiz-adv-x="535" d="M477 0H414V260Q414 313 384 345T298 377Q252 377 206 353T132 297V0H69V425H131V369Q211 434 303 434Q381 434 429 388T477 261V0Z" />
<glyph unicode="o" glyph-name="o" horiz-adv-x="511" d="M490 305T490 213T424 56T262 -9Q166 -9 100 56T33 213T99 369T262 434Q357 434 423 370ZM424 213Q424 281 377 329T262 377Q193 377 146 329T99 213Q99 144 146 96T262 48T377 96T424 213Z" />
<glyph unicode="p" glyph-name="p" horiz-adv-x="551" d="M273 -9Q194 -9 127 31V-222H64V425H125V379Q147 400 188 417T273 434Q373 434 441 372T510 209Q510 113 441 52T273 -9ZM273 377Q228 377 188 357T127 308V97Q150 76 190 62T273 48Q347 48 396 93T445
209Q445 287 397 332T273 377Z" />
<glyph unicode="q" glyph-name="q" horiz-adv-x="528" d="M279 434Q373 434 471 390V-222H409V44Q353 3 269 3Q172 3 103 62T33 222Q33 313 105 373T279 434ZM269 59Q309 59 347 74T409 112V350Q346 377 279 377Q201 377 150 334T98 222Q98 147 147 103T269 59Z" />
<glyph unicode="r" glyph-name="r" horiz-adv-x="362" d="M134 0H71V425H130V353Q182 434 286 434Q317 434 342 426V366Q315 376 283 376Q234 376 192 342T134 261V0Z" />
<glyph unicode="s" glyph-name="s" horiz-adv-x="377" d="M221 167L128 208Q31 246 31 319Q31 368 74 401T189 434Q277 434 332 379L295 339Q247 380 188 380Q145 380 122 363T99 319Q99 285 154 262L251 219Q346 177 346 106Q346 56 300 24T184 -9Q142 -9 100
8T30 52L63 97Q115 47 184 47Q226 47 252 62T279 106Q279 143 221 167Z" />
<glyph unicode="t" glyph-name="t" horiz-adv-x="406" d="M27 371V425H109V554H173V425H385V371H173V173Q173 113 205 81T295 49Q347 49 378 65V4Q343 -9 295 -9Q206 -9 158 39T109 169V371H27Z" />
<glyph unicode="u" glyph-name="u" horiz-adv-x="535" d="M69 425H132V165Q132 112 162 80T248 48Q294 48 340 72T414 128V425H477V0H415V56Q335 -9 243 -9Q165 -9 117 37T69 164V425Z" />
<glyph unicode="v" glyph-name="v" horiz-adv-x="492" d="M80 425L247 65L413 425H479L281 0H210L15 425H80Z" />
<glyph unicode="w" glyph-name="w" horiz-adv-x="754" d="M588 0H523L379 354L232 0H166L15 425H76L202 75L348 425H413L556 75L681 425H741L588 0Z" />
<glyph unicode="x" glyph-name="x" horiz-adv-x="490" d="M477 0H404L245 180L88 0H15L209 222L33 425H105L245 264L382 425H455L280 222L477 0Z" />
<glyph unicode="y" glyph-name="y" horiz-adv-x="531" d="M84 425L270 92L450 425H518L169 -222H100L237 31L15 425H84Z" />
<glyph unicode="z" glyph-name="z" horiz-adv-x="443" d="M395 0H41V38L306 371H52V425H395V388L128 54H395V0Z" />
<glyph unicode="{" glyph-name="braceleft" horiz-adv-x="430" d="M61 275H43V328H61Q125 328 125 392V527Q125 598 166 640T292 682H333V628H293Q237 628 214 603T191 527V390Q191 321 134 302Q165 292 178 271T191 215V82Q191 -23 307 -23H333V-77H297Q214 -77
170 -34T125 82V214Q125 241 107 258T61 275Z" />
<glyph unicode="|" glyph-name="bar" horiz-adv-x="298" d="M179 -114H117V690H179V-114Z" />
<glyph unicode="}" glyph-name="braceright" horiz-adv-x="430" d="M369 330H387V277H369Q305 277 305 213V78Q305 7 264 -35T138 -77H97V-23H137Q193 -23 216 2T239 78V215Q239 284 296 303Q265 313 252 334T239 390V523Q239 628 123 628H97V682H133Q216 682
260 639T305 523V391Q305 364 323 347T369 330Z" />
<glyph unicode="~" glyph-name="asciitilde" horiz-adv-x="621" d="M489 346H556Q556 258 527 219T435 179Q400 179 357 203T273 252T203 276Q173 276 153 250T132 175H68Q68 258 108 299T202 340Q233 340 268 325T329 292T385 258T438 243Q469 243 479 268T489 346Z" />
</font>
</defs>
</svg>
