<?xml version="1.0" standalone="no"?> <!DOCTYPE svg PUBLIC "-//W3C//DTD SVG 1.0//EN" "http://www.w3.org/TR/2001/REC-SVG-20010904/DTD/svg10.dtd" > <svg xmlns="http://www.w3.org/2000/svg" width="100%" height="100%">
<defs >
<font horiz-adv-x="435" ><font-face
    font-family="ExcellenceInMotion"
    units-per-em="1000"
    panose-1="2 0 6 6 3 0 0 2 0 4"
    ascent="647"
    descent="-222"
    alphabetic="0" />
<missing-glyph horiz-adv-x="444" d="M0 7V627H444V7H0ZM222 352L380 590H64L222 352ZM246 317L405 77V555L246 317ZM64 44H380L222 281L64 44ZM39 555V78L198 317L39 555Z" />
<glyph unicode=" " glyph-name="space" horiz-adv-x="270" />
<glyph unicode="!" glyph-name="exclam" horiz-adv-x="281" d="M206 52Q206 23 187 5T140 -13T93 5T74 52Q74 79 93 97T140 116T187 98T206 52ZM188 175H93L89 600H192L188 175Z" />
<glyph unicode="&quot;" glyph-name="quotedbl" horiz-adv-x="433" d="M40 379L143 647H246L142 379H40ZM216 379L319 647H422L318 379H216Z" />
<glyph unicode="#" glyph-name="numbersign" horiz-adv-x="736" d="M527 636H624L577 470H676V386H553L514 246H676V162H490L444 0H345L391 162H255L209 0H110L156 162H55V246H180L220 386H55V470H244L292 636H389L343 470H479L527 636ZM318 386L279 246H415L455
386H318Z" />
<glyph unicode="$" glyph-name="dollar" horiz-adv-x="571" d="M336 231L198 288Q70 341 70 447Q70 507 116 551T239 609V690H336V610Q423 598 492 538L438 469Q377 525 295 525Q241 525 211 504T181 449Q181 422 197 405T246 375L385 318Q513 264 513 158Q513
94 464 48T336 -9V-114H239V-9Q127 8 63 69L115 149Q190 79 285 79Q338 79 368 100T399 156Q399 204 336 231Z" />
<glyph unicode="%" glyph-name="percent" horiz-adv-x="816" d="M89 0L605 636H724L211 0H89ZM370 568T370 511T329 414T228 373T127 413T84 511T126 607T228 647Q287 647 328 608ZM291 511Q291 537 273 556T228 575Q200 575 182 557T163 511T182 465T228 445Q254
445 272 464T291 511ZM725 186T725 129T684 32T583 -9T482 31T439 129T481 225T583 265Q642 265 683 226ZM646 129Q646 155 628 174T583 193Q556 193 537 175T518 129T537 83T583 63Q609 63 627 82T646 129Z" />
<glyph unicode="&amp;" glyph-name="ampersand" horiz-adv-x="634" d="M491 235L561 183Q534 145 510 120L618 9V0H507L446 60Q361 -13 254 -13Q163 -13 107 30T50 145Q50 194 83 233T188 325Q130 383 115 406Q95 439 95 475Q95 534 144 573T264 613Q334 613 381
575T428 478Q428 434 403 399T318 318L450 183Q475 210 491 235ZM153 148Q153 113 181 92T254 71Q328 71 386 123L248 263Q194 225 174 201T153 148ZM334 477Q334 503 313 521T263 539Q230 539 210 521T190 477Q190 470 191 464T194 452T201 440T208 430T219 418T230
407T243 394T257 381Q300 414 317 434T334 477Z" />
<glyph unicode="&apos;" glyph-name="quotesingle" horiz-adv-x="259" d="M40 379L143 647H246L142 379H40Z" />
<glyph unicode="(" glyph-name="parenleft" horiz-adv-x="380" d="M297 -79H189Q74 102 73 308T180 679H288Q57 315 297 -79Z" />
<glyph unicode=")" glyph-name="parenright" horiz-adv-x="381" d="M185 -79H77Q317 315 86 679H194Q303 514 302 308T185 -79Z" />
<glyph unicode="*" glyph-name="asterisk" horiz-adv-x="384" d="M67 589L154 553L150 647H228L225 553L314 590L342 518L249 485L306 409L243 363L190 444L135 367L74 411L130 485L39 518L67 589Z" />
<glyph unicode="+" glyph-name="plus" horiz-adv-x="574" d="M338 0H233V188H58V278H233V457H338V278H514V188H338V0Z" />
<glyph unicode="," glyph-name="comma" horiz-adv-x="240" d="M15 -161L118 107H221L117 -161H15Z" />
<glyph unicode="-" glyph-name="hyphen" horiz-adv-x="538" d="M435 200H105V299H435V200Z" />
<glyph unicode="." glyph-name="period" horiz-adv-x="311" d="M221 53Q221 24 202 6T155 -13T108 5T89 53Q89 79 108 97T155 116T202 98T221 53Z" />
<glyph unicode="/" glyph-name="slash" horiz-adv-x="660" d="M53 -88L511 696H621L165 -88H53Z" />
<glyph unicode="0" glyph-name="zero" horiz-adv-x="619" d="M572 303Q572 159 500 73T307 -13Q188 -13 116 73T44 303Q44 439 116 526T307 613Q426 613 499 526T572 303ZM466 302Q466 402 424 460T306 518Q234 518 192 460T149 302Q149 198 191 140T306 82Q381
82 423 139T466 302Z" />
<glyph unicode="1" glyph-name="one" horiz-adv-x="449" d="M370 0H263V478L96 333L36 404L260 600H370V0Z" />
<glyph unicode="2" glyph-name="two" horiz-adv-x="521" d="M465 0H56V82L257 279Q357 377 357 435Q357 477 329 501T249 525Q171 525 98 450L44 519Q85 560 140 586T253 613Q349 613 404 566T459 439Q459 402 436 359T393 293T331 226L195 88H465V0Z" />
<glyph unicode="3" glyph-name="three" horiz-adv-x="519" d="M169 272V352H238Q290 352 320 378T351 443Q351 480 321 504T239 528Q164 528 97 473L52 543Q91 574 143 593T245 613Q339 613 396 567T453 451Q453 365 365 316Q409 299 439 262T470 169Q470 92 406
40T243 -13Q191 -13 137 5T45 57L91 132Q152 77 240 77Q296 77 331 105T366 176Q366 218 331 245T239 272H169Z" />
<glyph unicode="4" glyph-name="four" horiz-adv-x="609" d="M79 116L38 199L346 600H475V200H565V116H475V0H378V116H79ZM150 200H378V501L150 200Z" />
<glyph unicode="5" glyph-name="five" horiz-adv-x="540" d="M249 76Q312 76 350 108T389 195Q389 246 348 276T242 307Q169 307 111 282L69 322L112 600H439V517H199L178 379Q210 388 265 388Q363 388 427 336T491 195Q491 103 424 45T251 -13Q199 -13 144 7T48
60L96 135Q166 76 249 76Z" />
<glyph unicode="6" glyph-name="six" horiz-adv-x="541" d="M502 195Q502 105 438 46T273 -13Q171 -13 106 57T41 277Q41 448 111 530T302 613Q397 613 467 567L422 491Q372 526 306 526Q233 526 190 480T143 342Q192 399 285 399Q381 399 441 343T502 195ZM275
314Q222 314 187 282T152 197Q152 143 187 109T275 75Q329 75 364 109T400 196Q400 251 366 282T275 314Z" />
<glyph unicode="7" glyph-name="seven" horiz-adv-x="507" d="M204 0H86L343 507H45V600H458V515L204 0Z" />
<glyph unicode="8" glyph-name="eight" horiz-adv-x="576" d="M502 457Q502 407 476 374T413 323Q458 306 491 267T525 169Q525 85 459 36T290 -13Q193 -13 124 36T55 169Q55 228 89 266T168 323Q133 340 106 373T78 457Q78 524 137 568T290 613Q386 613 444 569T502
457ZM290 277Q234 277 199 247T163 171T199 97T290 68Q346 68 380 97T415 171T381 246T290 277ZM182 453Q182 416 211 390T290 363Q339 363 370 389T401 453Q401 487 373 512T290 537Q238 537 210 512T182 453Z" />
<glyph unicode="9" glyph-name="nine" horiz-adv-x="528" d="M34 405Q34 495 98 554T263 613Q365 613 430 543T495 323Q495 152 425 70T234 -13Q139 -13 69 33L114 109Q164 74 230 74Q303 74 346 120T393 258Q344 201 251 201Q155 201 95 257T34 405ZM261 286Q314
286 349 318T384 403Q384 457 349 491T261 525Q207 525 172 491T136 404Q136 349 170 318T261 286Z" />
<glyph unicode=":" glyph-name="colon" horiz-adv-x="311" d="M221 53Q221 24 202 6T155 -13T108 5T89 53Q89 79 108 97T155 116T202 98T221 53ZM221 371Q221 342 202 324T155 305T108 323T89 371Q89 397 108 415T155 434T202 416T221 371Z" />
<glyph unicode=";" glyph-name="semicolon" horiz-adv-x="274" d="M233 371Q233 342 214 324T167 305T120 323T101 371Q101 397 120 415T167 434T214 416T233 371ZM15 -161L118 107H221L117 -161H15Z" />
<glyph unicode="&lt;" glyph-name="less" horiz-adv-x="575" d="M373 589H515L164 296L515 0H373L75 256V339L373 589Z" />
<glyph unicode="=" glyph-name="equal" horiz-adv-x="617" d="M97 55V147H517V55H97ZM97 296V388H517V296H97Z" />
<glyph unicode="&gt;" glyph-name="greater" horiz-adv-x="586" d="M66 589H208L506 339V256L208 0H66L417 296L66 589Z" />
<glyph unicode="?" glyph-name="question" horiz-adv-x="500" d="M295 167H198V203Q198 242 210 268T254 326Q261 333 279 350T306 376T325 399T341 425T346 449Q346 525 245 525Q172 525 108 457L51 523Q86 561 138 587T248 613Q339 613 394 569T450 456Q450
446 448 436T444 418T436 399T427 383T415 365T403 350T388 334T374 319T357 303T342 288Q295 244 295 204V167ZM312 52Q312 23 294 5T247 -13T200 5T181 52Q181 79 200 97T247 116Q274 116 293 98T312 52Z" />
<glyph unicode="@" glyph-name="at" horiz-adv-x="981" d="M598 132V206Q548 214 505 214Q451 214 422 196T392 146T416 98T481 80Q562 80 598 132ZM747 20Q672 20 640 70Q585 5 477 5Q397 5 346 44T295 142Q295 203 349 241T498 279Q547 279 598 271V279Q598
321 568 347T478 373Q404 373 337 334V415Q404 450 482 450Q588 450 641 401T695 272V157Q695 128 710 114T748 100Q823 100 823 257Q823 381 730 466T493 551Q353 551 258 456T162 215Q162 69 268 -19T528 -107Q657 -107 765 -38L803 -115Q683 -191 530 -191Q408
-191 305 -144T137 -3T72 213Q72 393 193 512T494 632Q674 632 793 523T913 257Q913 138 864 79T747 20Z" />
<glyph unicode="A" glyph-name="A" horiz-adv-x="761" d="M629 0L548 162H206L125 0H11L319 600H437L749 0H629ZM377 505L248 247H505L377 505Z" />
<glyph unicode="B" glyph-name="B" horiz-adv-x="590" d="M343 0H70V600H325Q422 600 479 558T537 445Q537 370 454 317Q554 267 554 169Q554 93 495 47T343 0ZM335 516H174V355H339Q378 355 403 378T428 435Q428 470 403 493T335 516ZM341 271H174V84H332Q382
84 414 111T447 180Q447 220 418 245T341 271Z" />
<glyph unicode="C" glyph-name="C" horiz-adv-x="640" d="M547 174L619 109Q515 -13 361 -13Q222 -13 125 76T27 306Q27 436 122 524T356 613Q497 613 605 503L534 435Q463 517 357 517Q262 517 198 457T133 306Q133 206 199 145T359 84Q475 84 547 174Z" />
<glyph unicode="D" glyph-name="D" horiz-adv-x="657" d="M278 0H70V600H278Q441 600 530 527T620 309Q620 168 528 84T278 0ZM174 90H278Q391 90 452 147T514 307Q514 405 453 457T278 510H174V90Z" />
<glyph unicode="E" glyph-name="E" horiz-adv-x="526" d="M482 0H70V600H483V510H174V348H468V262H174V90H482V0Z" />
<glyph unicode="F" glyph-name="F" horiz-adv-x="499" d="M450 235H174V0H70V600H468V509H174V323H450V235Z" />
<glyph unicode="G" glyph-name="G" horiz-adv-x="679" d="M367 82Q470 82 526 128V230H377V312H625V69Q528 -13 367 -13Q223 -13 125 75T26 305Q26 433 121 523T355 613Q499 613 605 518L534 447Q465 516 356 516Q261 516 199 455T136 305Q136 204 203 143T367 82Z" />
<glyph unicode="H" glyph-name="H" horiz-adv-x="686" d="M613 0H509V256H175V0H70V600H175V348H509V600H613V0Z" />
<glyph unicode="I" glyph-name="I" horiz-adv-x="300" d="M202 0H95V600H202V0Z" />
<glyph unicode="J" glyph-name="J" horiz-adv-x="407" d="M342 600V173Q342 85 294 36T160 -13Q131 -13 93 -3T28 24L63 105Q102 80 147 80Q198 80 217 112T237 206V600H342Z" />
<glyph unicode="K" glyph-name="K" horiz-adv-x="627" d="M175 600V332L443 600H579L294 314L611 0H462L175 288V0H70V600H175Z" />
<glyph unicode="L" glyph-name="L" horiz-adv-x="493" d="M464 0H70V600H174V90H464V0Z" />
<glyph unicode="M" glyph-name="M" horiz-adv-x="798" d="M724 0H620V442L395 134H389L172 442V0H70V600H182L394 299L613 600H724V0Z" />
<glyph unicode="N" glyph-name="N" horiz-adv-x="713" d="M641 0H541L172 439V0H70V600H167L537 163V600H641V0Z" />
<glyph unicode="O" glyph-name="O" horiz-adv-x="706" d="M28 302Q28 431 122 522T350 613T578 523T674 302T579 80T350 -13T123 79T28 302ZM133 302Q133 210 196 146T350 82Q442 82 504 145T566 302Q566 393 504 455T350 518Q259 518 196 456T133 302Z" />
<glyph unicode="P" glyph-name="P" horiz-adv-x="550" d="M280 193H173V0H69V600H280Q389 600 456 545T523 399T455 251T280 193ZM278 511H173V281H277Q340 281 380 312T420 399Q420 452 381 481T278 511Z" />
<glyph unicode="Q" glyph-name="Q" horiz-adv-x="704" d="M28 302Q28 431 122 522T350 613T578 523T674 302Q674 177 585 86L667 2L596 -63L506 26Q433 -13 350 -13Q217 -13 123 79T28 302ZM133 302Q133 210 196 146T350 82Q442 82 504 145T566 302Q566 393 504
455T350 518Q259 518 196 456T133 302Z" />
<glyph unicode="R" glyph-name="R" horiz-adv-x="605" d="M538 416Q538 356 500 309T394 241L597 0H468L284 227H174V0H70V600H306Q411 600 474 550T538 416ZM305 513H174V313H305Q360 313 394 341T428 413Q428 457 394 485T305 513Z" />
<glyph unicode="S" glyph-name="S" horiz-adv-x="526" d="M311 231L173 288Q45 341 45 447Q45 518 107 565T266 613Q382 613 467 538L413 469Q352 525 270 525Q216 525 186 504T156 449Q156 422 172 405T221 375L360 318Q488 264 488 158Q488 84 425 36T262 -13Q201
-13 140 9T38 69L90 149Q165 79 260 79Q313 79 343 100T374 156Q374 204 311 231Z" />
<glyph unicode="T" glyph-name="T" horiz-adv-x="504" d="M305 0H201V510H17V600H487V510H305V0Z" />
<glyph unicode="U" glyph-name="U" horiz-adv-x="681" d="M502 256V600H605V257Q605 128 533 58T339 -13Q220 -13 145 57T70 257V600H174V256Q174 170 220 127T339 83Q414 83 458 126T502 256Z" />
<glyph unicode="V" glyph-name="V" horiz-adv-x="670" d="M128 600L334 120L543 600H656L389 0H277L14 600H128Z" />
<glyph unicode="W" glyph-name="W" horiz-adv-x="948" d="M750 0H635L473 464L308 0H192L14 600H119L257 128L422 600H530L695 128L833 600H932L750 0Z" />
<glyph unicode="X" glyph-name="X" horiz-adv-x="633" d="M619 0H494L318 239L139 0H14L248 311L38 600H161L318 383L479 600H594L382 313L619 0Z" />
<glyph unicode="Y" glyph-name="Y" horiz-adv-x="616" d="M359 0H253V230L14 600H131L308 321L487 600H600L359 230V0Z" />
<glyph unicode="Z" glyph-name="Z" horiz-adv-x="575" d="M517 0H51V73L386 509H61V600H520V523L190 90H517V0Z" />
<glyph unicode="[" glyph-name="bracketleft" horiz-adv-x="410" d="M114 -79V679H336V592H208V8H336V-79H114Z" />
<glyph unicode="\" glyph-name="backslash" horiz-adv-x="644" d="M140 696L598 -88H486L30 696H140Z" />
<glyph unicode="]" glyph-name="bracketright" horiz-adv-x="406" d="M308 679V-79H86V8H214V592H86V679H308Z" />
<glyph unicode="^" glyph-name="asciicircum" horiz-adv-x="537" d="M447 334H355L269 532L186 334H94L224 640H315L447 334Z" />
<glyph unicode="_" glyph-name="underscore" horiz-adv-x="525" d="M485 -126H36V-39H485V-126Z" />
<glyph unicode="`" glyph-name="grave" horiz-adv-x="750" d="M261 647H368L494 485H394L261 642V647Z" />
<glyph unicode="a" glyph-name="a" horiz-adv-x="487" d="M440 0H348V38Q294 -9 212 -9Q132 -9 83 29T33 127T89 225T242 264Q281 264 344 255V263Q344 305 313 331T221 357Q143 357 76 321V401Q140 434 227 434Q333 434 386 385T440 257V0ZM344 114V190Q303 198
252 198Q198 198 168 179T137 129Q137 99 161 81T227 63Q303 63 344 114Z" />
<glyph unicode="b" glyph-name="b" horiz-adv-x="558" d="M290 434Q387 434 455 372T524 216Q524 114 458 53T296 -9Q207 -9 156 42V0H67V647H170V406Q224 434 290 434ZM281 78Q341 78 380 114T420 216Q420 275 380 311T280 348Q215 348 170 315V129Q186 107 216
93T281 78Z" />
<glyph unicode="c" glyph-name="c" horiz-adv-x="475" d="M385 141L455 79Q389 -9 268 -9Q170 -9 102 55T33 217Q33 307 102 370T268 434Q372 434 446 360L381 293Q336 343 268 343Q212 343 173 307T134 216Q134 156 173 120T268 83Q343 83 385 141Z" />
<glyph unicode="d" glyph-name="d" horiz-adv-x="547" d="M267 434Q333 434 387 406V647H490V0H401V42Q350 -9 261 -9Q166 -9 100 52T33 216Q33 310 101 372T267 434ZM276 78Q310 78 340 92T387 129V315Q342 348 277 348Q218 348 178 312T137 216Q137 151 176
115T276 78Z" />
<glyph unicode="e" glyph-name="e" horiz-adv-x="500" d="M477 182H135Q142 131 181 102T274 73Q354 73 403 129L458 64Q383 -9 274 -9Q170 -9 102 55T33 216Q33 305 98 369T257 434Q358 434 419 367T477 182ZM258 357Q210 357 177 327T136 252H374Q369 299 340
328T258 357Z" />
<glyph unicode="f" glyph-name="f" horiz-adv-x="379" d="M24 341V425H105V461Q105 542 160 594T302 647Q351 647 390 630V547Q359 562 316 562Q267 562 238 534T208 458V425H364V341H208V0H105V341H24Z" />
<glyph unicode="g" glyph-name="g" horiz-adv-x="541" d="M33 221Q33 315 106 374T284 434Q390 434 484 386V9Q484 -86 422 -141T252 -196Q142 -196 64 -141L101 -64Q165 -110 249 -110Q315 -110 350 -78T385 10V34Q338 2 267 2Q171 2 102 61T33 221ZM280 87Q342
87 383 125V327Q339 350 282 350Q221 350 179 314T137 221Q137 159 178 123T280 87Z" />
<glyph unicode="h" glyph-name="h" horiz-adv-x="552" d="M496 0H394V245Q394 290 368 315T300 341Q265 341 230 323T171 278V0H69V647H171V375Q247 434 325 434Q402 434 449 390T496 262V0Z" />
<glyph unicode="i" glyph-name="i" horiz-adv-x="241" d="M174 0H71V425H174V0ZM189 581Q189 552 170 534T123 515T76 533T57 581Q57 607 76 625T123 644T170 626T189 581Z" />
<glyph unicode="j" glyph-name="j" horiz-adv-x="272" d="M211 425V-21Q211 -104 165 -151T40 -198Q-26 -198 -80 -164L-47 -84Q-10 -106 26 -106Q109 -106 109 -15V425H211ZM227 581Q227 552 208 534T161 515T114 533T95 581Q95 607 114 625T161 644T208 626T227 581Z" />
<glyph unicode="k" glyph-name="k" horiz-adv-x="513" d="M171 647V266L351 425H484L274 237L506 0H371L171 205V0H69V647H171Z" />
<glyph unicode="l" glyph-name="l" horiz-adv-x="255" d="M182 0H79V647H182V0Z" />
<glyph unicode="m" glyph-name="m" horiz-adv-x="808" d="M755 0H652V259Q652 300 632 323T574 346Q545 346 514 329T462 287Q462 280 462 266T463 245V0H360V266Q360 302 340 324T286 346Q256 346 224 329T171 285V0H69V425H165V375Q231 434 311 434Q353 434
386 416T437 369Q511 434 593 434Q665 434 710 390T755 265V0Z" />
<glyph unicode="n" glyph-name="n" horiz-adv-x="553" d="M496 0H394V246Q394 290 369 316T300 342Q265 342 230 324T171 279V0H69V425H166V374Q238 434 325 434Q403 434 449 390T496 263V0Z" />
<glyph unicode="o" glyph-name="o" horiz-adv-x="520" d="M33 213Q33 306 99 370T262 434T424 370T491 213T425 56T262 -9T100 56T33 213ZM137 214Q137 158 173 121T262 84T350 121T386 214Q386 269 351 306T262 343T173 306T137 214Z" />
<glyph unicode="p" glyph-name="p" horiz-adv-x="553" d="M288 -9Q222 -9 168 19V-222H65V425H154V383Q205 434 294 434Q389 434 455 373T522 209Q522 115 454 53T288 -9ZM279 347Q245 347 215 333T168 296V110Q213 77 278 77Q337 77 377 113T418 209Q418 274
379 310T279 347Z" />
<glyph unicode="q" glyph-name="q" horiz-adv-x="548" d="M33 222Q33 316 107 375T288 434Q387 434 485 391V-222H385V34Q336 2 268 2Q172 2 103 60T33 222ZM278 87Q342 87 383 126V329Q338 349 285 349Q221 349 179 313T137 221Q137 159 178 123T278 87Z" />
<glyph unicode="r" glyph-name="r" horiz-adv-x="374" d="M174 0H71V425H163V361Q184 394 221 414T302 434Q333 434 359 425V331Q333 341 301 341Q259 341 223 314T174 246V0Z" />
<glyph unicode="s" glyph-name="s" horiz-adv-x="393" d="M214 157L130 194Q29 238 29 311Q29 363 74 398T197 434Q286 434 348 381L302 319Q253 355 200 355Q167 355 149 344T131 313Q131 289 172 271L261 234Q361 192 361 115Q361 59 315 25T191 -9Q146 -9 102
8T25 52L68 123Q127 73 193 73Q260 73 260 111Q260 137 214 157Z" />
<glyph unicode="t" glyph-name="t" horiz-adv-x="391" d="M17 343V425H94V554H197V425H375V343H197V183Q197 134 223 108T297 82Q341 82 369 96V6Q332 -9 286 -9Q194 -9 144 39T94 171V343H17Z" />
<glyph unicode="u" glyph-name="u" horiz-adv-x="541" d="M58 425H160V179Q160 135 185 109T254 83Q289 83 324 101T383 146V425H485V0H388V51Q316 -9 229 -9Q151 -9 105 35T58 162V425Z" />
<glyph unicode="v" glyph-name="v" horiz-adv-x="510" d="M121 425L255 108L391 425H499L310 0H198L11 425H121Z" />
<glyph unicode="w" glyph-name="w" horiz-adv-x="756" d="M597 0H495L379 303L262 0H156L14 425H118L216 116L331 425H430L543 116L643 425H743L597 0Z" />
<glyph unicode="x" glyph-name="x" horiz-adv-x="519" d="M506 0H383L260 158L137 0H14L191 222L32 425H154L260 288L367 425H482L323 223L506 0Z" />
<glyph unicode="y" glyph-name="y" horiz-adv-x="541" d="M126 425L272 140L417 425H527L189 -222H79L219 42L14 425H126Z" />
<glyph unicode="z" glyph-name="z" horiz-adv-x="443" d="M402 0H38V61L269 344H49V425H401V359L172 81H402V0Z" />
<glyph unicode="{" glyph-name="braceleft" horiz-adv-x="410" d="M57 265H39V340H57Q121 340 121 404V527Q121 598 162 640T288 682H346V603H305Q216 603 216 513V390Q216 321 159 302Q190 292 203 271T216 215V97Q216 2 314 2H346V-77H293Q210 -77 166 -34T121
82V204Q121 231 103 248T57 265Z" />
<glyph unicode="|" glyph-name="bar" horiz-adv-x="298" d="M201 -114H97V690H201V-114Z" />
<glyph unicode="}" glyph-name="braceright" horiz-adv-x="410" d="M373 340H391V265H373Q309 265 309 201V78Q309 7 268 -35T142 -77H84V2H125Q214 2 214 92V215Q214 284 271 303Q240 313 227 334T214 390V508Q214 603 116 603H84V682H137Q220 682 264 639T309
523V401Q309 374 327 357T373 340Z" />
<glyph unicode="~" glyph-name="asciitilde" horiz-adv-x="621" d="M464 346H555Q554 255 522 217T426 178Q383 178 314 215T219 252Q195 252 178 231T160 175H68Q68 256 109 298T208 340Q251 340 321 304T418 267T454 286T464 346Z" />
</font>
</defs>
</svg>
